<?xml version="1.0" encoding="utf-8"?>
<!-- Generator: Adobe Illustrator 16.0.4, SVG Export Plug-In . SVG Version: 6.00 Build 0)  -->
<!DOCTYPE svg PUBLIC "-//W3C//DTD SVG 1.1//EN" "http://www.w3.org/Graphics/SVG/1.1/DTD/svg11.dtd">
<svg version="1.1" id="Calque_1" xmlns="http://www.w3.org/2000/svg" xmlns:xlink="http://www.w3.org/1999/xlink" x="0px" y="0px"
	 width="500px" height="500px" viewBox="134 262 500 500" enable-background="new 134 262 500 500" xml:space="preserve">
<g>
	<path d="M525.293,289.229c-4.21-4.209-10.587-5.479-16.097-3.203c-5.525,2.29-9.116,7.676-9.116,13.65v73.394
		c0,8.156,6.624,14.765,14.766,14.765h73.393c5.975,0,11.346-3.591,13.651-9.116c2.275-5.526,1.006-11.887-3.204-16.097
		L525.293,289.229z"/>
	<path d="M498.873,418.789c-16.438,0-29.748-13.311-29.748-29.747v-110.26c0-8.157-6.624-14.766-14.766-14.766H313.811
		c-25.337,0-45.891,20.539-45.891,45.89V713.4c0,25.352,20.554,45.89,45.891,45.89h264.198c25.336,0,45.89-20.538,45.89-45.89
		V433.555c0-8.156-6.624-14.766-14.766-14.766H498.873z"/>
	<path d="M236.965,713.4V309.906c0-17.257,5.928-33.044,15.586-45.89h-0.65c-25.336,0-45.89,20.539-45.89,45.89V713.4
		c0,25.352,20.554,45.89,45.89,45.89h0.65C242.893,746.444,236.965,730.657,236.965,713.4z"/>
	<path d="M175.056,713.4V309.906c0-17.257,5.928-33.044,15.586-45.89h-0.65c-25.336,0-45.89,20.539-45.89,45.89V713.4
		c0,25.352,20.554,45.89,45.89,45.89h0.65C180.984,746.444,175.056,730.657,175.056,713.4z"/>
</g>
</svg>
