<?xml version="1.0" encoding="utf-8"?>
<!-- Generator: Adobe Illustrator 16.0.4, SVG Export Plug-In . SVG Version: 6.00 Build 0)  -->
<!DOCTYPE svg PUBLIC "-//W3C//DTD SVG 1.1//EN" "http://www.w3.org/Graphics/SVG/1.1/DTD/svg11.dtd">
<svg version="1.1" id="Calque_1" xmlns="http://www.w3.org/2000/svg" xmlns:xlink="http://www.w3.org/1999/xlink" x="0px" y="0px"
	 width="500px" height="500px" viewBox="134 262 500 500" enable-background="new 134 262 500 500" xml:space="preserve">
<g>
	<path d="M606.866,290.905c-14.889-15.498-54.325-36.965-67.696-23.452c-13.381,13.513-342.812,341.421-342.812,341.421
		l-62.26,153.388l150.286-61.097c0,0,327.542-325.67,342.71-340.792C642.272,345.251,622.212,306.86,606.866,290.905z
		 M165.175,742.688c0,0-3.315-8.838-12.32-9.523c8.396-20.162,48.909-117.245,48.909-117.245s26.31-8.188,27.427,24.295
		c24.645,2.803,27.274,14.532,28.949,28.538c17.924,2.803,22.564,19.741,22.407,26.884
		C265.983,701.241,165.175,742.688,165.175,742.688z"/>
</g>
</svg>
