<?xml version="1.0" encoding="utf-8"?>
<!-- Generator: Adobe Illustrator 16.0.4, SVG Export Plug-In . SVG Version: 6.00 Build 0)  -->
<!DOCTYPE svg PUBLIC "-//W3C//DTD SVG 1.1//EN" "http://www.w3.org/Graphics/SVG/1.1/DTD/svg11.dtd">
<svg version="1.1" id="Calque_1" xmlns="http://www.w3.org/2000/svg" xmlns:xlink="http://www.w3.org/1999/xlink" x="0px" y="0px"
	 width="500px" height="500px" viewBox="134 262 500 500" enable-background="new 134 262 500 500" xml:space="preserve">
<g>
	<path d="M198.542,736.196c40.035-7.219,81.383-19.031,100.416-68.256c0-0.655-0.656-1.969-1.969-1.969
		c-17.064,9.845-39.379,11.156-46.598,11.156c-1.969,0-2.625-0.655-2.625-2.625c-0.656-7.218-2.625-29.533,5.25-47.254
		c0.656-0.655-0.656-1.969-1.968-1.969c-46.599,24.939-53.818,66.944-56.443,107.636
		C195.261,734.885,197.23,736.196,198.542,736.196z"/>
	<path d="M321.929,448.076c-91.884,7.219-148.982,63.662-174.579,91.227c-1.968,2.625,0,6.563,3.938,4.595
		c51.849-17.064,103.042-9.188,120.761-5.25c3.938,0.655,5.25,4.594,4.595,7.219l-11.814,44.629
		c-0.656,2.626,0.656,6.563,3.938,7.221c7.22,2.625,20.346,8.532,32.815,19.032c12.47,11.814,20.346,23.627,22.971,30.848
		c1.969,2.624,4.595,3.937,7.22,2.624l42.66-17.063c3.938-0.656,6.563,0,8.532,3.938c5.251,16.407,20.331,67.6,8.532,120.761
		c-0.656,2.625,2.61,5.25,5.236,2.625c24.939-28.222,74.164-91.227,70.226-183.768c0-1.969,0.655-2.625,1.968-3.938
		C596.908,461.202,615.941,331.909,617.91,262.34c-68.256,9.845-195.58,43.973-291.387,183.767
		C324.554,446.764,323.898,448.076,321.929,448.076z M482.711,413.292c19.033,17.064,21.002,47.254,3.938,66.944
		c-17.063,19.033-47.254,21.002-66.943,3.938c-19.033-17.063-21.002-47.254-3.938-66.943
		C433.487,397.54,463.678,395.571,482.711,413.292z"/>
</g>
</svg>
